<?xml version="1.0" encoding="utf-8"?>
<!-- Generator: Adobe Illustrator 21.0.2, SVG Export Plug-In . SVG Version: 6.00 Build 0)  -->
<svg version="1.1" id="圖層_1" xmlns="http://www.w3.org/2000/svg" xmlns:xlink="http://www.w3.org/1999/xlink" x="0px" y="0px"
	 viewBox="0 0 25.1 19.7" style="enable-background:new 0 0 25.1 19.7;" xml:space="preserve">
<style type="text/css">
	.st0{fill:#FFFFFF;}
</style>
<path class="st0" d="M12.6,16.9c-3.5,0-7.1-1.4-9.9-4.2l-2.4-2.4C0.1,10.1,0,9.9,0,9.7c0-0.2,0.1-0.4,0.2-0.6l2.4-2.4
	c5.6-5.6,14.1-5.6,19.8,0l2.4,2.4c0.2,0.2,0.2,0.4,0.2,0.6c0,0.2-0.1,0.4-0.2,0.6l-2.4,2.4C19.7,15.5,16.1,16.9,12.6,16.9z M2,9.7
	l1.8,1.8c5,5,12.5,5,17.5,0l1.8-1.8l-1.8-1.8c-5-5-12.5-5-17.5,0L2,9.7z"/>
<path class="st0" d="M12.6,14.6c-2.7,0-4.9-2.2-4.9-4.9s2.2-4.9,4.9-4.9s4.9,2.2,4.9,4.9S15.3,14.6,12.6,14.6z M12.6,6.4
	c-1.8,0-3.3,1.5-3.3,3.3s1.5,3.3,3.3,3.3s3.3-1.5,3.3-3.3S14.4,6.4,12.6,6.4z"/>
<path class="st0" d="M12.6,11.9c-1.2,0-2.2-1-2.2-2.2H12c0,0.3,0.3,0.6,0.6,0.6c0.3,0,0.6-0.3,0.6-0.6c0-0.3-0.3-0.6-0.6-0.6V7.4
	c1.2,0,2.2,1,2.2,2.2S13.8,11.9,12.6,11.9z"/>
</svg>
