<?xml version="1.0" encoding="utf-8"?>
<!-- Generator: Adobe Illustrator 21.0.2, SVG Export Plug-In . SVG Version: 6.00 Build 0)  -->
<svg version="1.1" id="圖層_1" xmlns="http://www.w3.org/2000/svg" xmlns:xlink="http://www.w3.org/1999/xlink" x="0px" y="0px"
	 viewBox="0 0 25.1 19.7" style="enable-background:new 0 0 25.1 19.7;" xml:space="preserve">
<style type="text/css">
	.st0{fill:#444444;}
</style>
<path class="st0" d="M22.4,1H2.6c-0.6,0-1,0.4-1,1v15.4c0,0.6,0.4,1,1,1h19.8c0.6,0,1-0.4,1-1V2C23.4,1.4,22.9,1,22.4,1z M22.2,2.2
	v1.9l-9.7,7.4L2.8,3.8V2.2H22.2z M2.8,17.2V5.3l9.3,7.4c0.1,0.1,0.2,0.1,0.4,0.1c0.1,0,0.3,0,0.4-0.1l9.3-7.1v11.6H2.8z"/>
</svg>
