<?xml version="1.0" encoding="utf-8"?>
<!-- Generator: Adobe Illustrator 22.0.1, SVG Export Plug-In . SVG Version: 6.00 Build 0)  -->
<svg version="1.1" id="Capa_1" xmlns="http://www.w3.org/2000/svg" xmlns:xlink="http://www.w3.org/1999/xlink" x="0px" y="0px"
	 viewBox="0 0 512 512" style="enable-background:new 0 0 512 512;" xml:space="preserve">
<style type="text/css">
	.st0{fill:#FFFFFF;}
</style>
<g>
	<g>
		<path class="st0" d="M256,0C114.8,0,0,114.8,0,256c0,141.2,114.8,256,256,256c141.2,0,256-114.8,256-256C512,114.8,397.2,0,256,0z
			 M256,478.4c-122.6,0-222.4-99.8-222.4-222.4c0-122.6,99.8-222.4,222.4-222.4c122.6,0,222.4,99.8,222.4,222.4
			C478.4,378.6,378.6,478.4,256,478.4z"/>
		<path class="st0" d="M357.7,239.2h-84.9v-84.9c0-9.3-7.5-16.8-16.8-16.8c-9.3,0-16.8,7.5-16.8,16.8v85h-84.9
			c-9.3,0-16.8,7.5-16.8,16.8c0,9.3,7.5,16.8,16.8,16.8h84.9v84.9c0,9.3,7.5,16.8,16.8,16.8c9.3,0,16.8-7.5,16.8-16.8v-84.9h84.9
			c9.3,0,16.8-7.5,16.8-16.8C374.5,246.7,367,239.2,357.7,239.2z"/>
	</g>
</g>
</svg>
