<svg xmlns="http://www.w3.org/2000/svg" viewBox="3724 727.882 19.573 19.573">
  <defs>
    <style>
      .cls-1 {
        fill: none;
      }

      .cls-2 {
        fill: #fff;
      }
    </style>
  </defs>
  <g id="Search" transform="translate(3724 727.882)">
    <rect id="Rectangle_693" data-name="Rectangle 693" class="cls-1" width="19.573" height="19.573"/>
    <path id="Path_208" data-name="Path 208" class="cls-2" d="M19.451,17.738,15.414,13.7a8.376,8.376,0,0,0,1.713-5.138A8.511,8.511,0,0,0,8.563,0,8.511,8.511,0,0,0,0,8.563a8.511,8.511,0,0,0,8.563,8.563A8.376,8.376,0,0,0,13.7,15.414l4.037,4.037Zm-17-9.175A6.057,6.057,0,0,1,8.563,2.447,6.057,6.057,0,0,1,14.68,8.563,6.057,6.057,0,0,1,8.563,14.68,6.057,6.057,0,0,1,2.447,8.563Z"/>
  </g>
</svg>
